<svg width="24" height="24" viewBox="0 0 24 24" fill="none" xmlns="http://www.w3.org/2000/svg">
<g clip-path="url(#clip0_703_603)">
<rect width="24" height="24" rx="12" fill="white"/>
<g filter="url(#filter0_f_703_603)">
<path d="M8.5 13.5C8.5 17.366 5.86602 20 2.00002 20C-1.86597 20 -2 16.866 -2 13C-2 9.13401 -0.365969 2 3.50002 2C7.36602 2 8.5 9.63401 8.5 13.5Z" fill="#E692D3"/>
</g>
<g filter="url(#filter1_f_703_603)">
<path d="M8.25 15.3848C8.25 19.1872 -0.678932 30 -2.75 30C-4.82107 30 -9.75001 18.6872 -9.75001 14.8848C-9.75001 11.0824 2.42893 8.5 4.5 8.5C6.57107 8.5 8.25 11.5824 8.25 15.3848Z" fill="#A88FE0"/>
</g>
<g filter="url(#filter2_f_703_603)">
<circle cx="19" cy="2" r="7" fill="#EAC396"/>
</g>
<g filter="url(#filter3_f_703_603)">
<path d="M29.5 24.4502C29.5 28.3162 26.366 31.4502 22.5 31.4502C18.634 31.4502 6 23.3162 6 19.4502C6 15.5842 18.634 17.4502 22.5 17.4502C26.366 17.4502 29.5 20.5842 29.5 24.4502Z" fill="#A5E99E"/>
</g>
<g filter="url(#filter4_f_703_603)">
<path d="M35.9749 24.5C35.9749 28.366 13.1118 32 9.24585 32C5.37986 32 11.7459 19.366 11.7459 15.5C11.7459 11.634 18.6089 11 22.4749 11C26.3409 11 35.9749 20.634 35.9749 24.5Z" fill="#8EE8D6"/>
</g>
<g filter="url(#filter5_f_703_603)">
<path d="M11 3.00928C11 6.87527 8.86601 14.5093 5.00002 14.5093C1.13403 14.5093 0 3.37527 0 -0.490723C0 -4.35672 0.134026 -3.99072 4.00002 -3.99072C7.86601 -3.99072 11 -0.856718 11 3.00928Z" fill="#EC9E9E"/>
</g>
<g filter="url(#filter6_f_703_603)">
<path d="M18 19.8C18 23.7765 14.866 27 11 27C7.13398 27 5.99996 23.2622 5.99996 19.2857C5.99996 15.3093 7.13401 9 11 9C14.866 9 18 15.8236 18 19.8Z" fill="#91BCE6"/>
</g>
</g>
<defs>
<filter id="filter0_f_703_603" x="-8" y="-4" width="22.5" height="30" filterUnits="userSpaceOnUse" color-interpolation-filters="sRGB">
<feFlood flood-opacity="0" result="BackgroundImageFix"/>
<feBlend mode="normal" in="SourceGraphic" in2="BackgroundImageFix" result="shape"/>
<feGaussianBlur stdDeviation="3" result="effect1_foregroundBlur_703_603"/>
</filter>
<filter id="filter1_f_703_603" x="-15.75" y="2.5" width="30" height="33.5" filterUnits="userSpaceOnUse" color-interpolation-filters="sRGB">
<feFlood flood-opacity="0" result="BackgroundImageFix"/>
<feBlend mode="normal" in="SourceGraphic" in2="BackgroundImageFix" result="shape"/>
<feGaussianBlur stdDeviation="3" result="effect1_foregroundBlur_703_603"/>
</filter>
<filter id="filter2_f_703_603" x="6" y="-11" width="26" height="26" filterUnits="userSpaceOnUse" color-interpolation-filters="sRGB">
<feFlood flood-opacity="0" result="BackgroundImageFix"/>
<feBlend mode="normal" in="SourceGraphic" in2="BackgroundImageFix" result="shape"/>
<feGaussianBlur stdDeviation="3" result="effect1_foregroundBlur_703_603"/>
</filter>
<filter id="filter3_f_703_603" x="0" y="11" width="35.5" height="26.4502" filterUnits="userSpaceOnUse" color-interpolation-filters="sRGB">
<feFlood flood-opacity="0" result="BackgroundImageFix"/>
<feBlend mode="normal" in="SourceGraphic" in2="BackgroundImageFix" result="shape"/>
<feGaussianBlur stdDeviation="3" result="effect1_foregroundBlur_703_603"/>
</filter>
<filter id="filter4_f_703_603" x="2" y="5" width="39.9749" height="33" filterUnits="userSpaceOnUse" color-interpolation-filters="sRGB">
<feFlood flood-opacity="0" result="BackgroundImageFix"/>
<feBlend mode="normal" in="SourceGraphic" in2="BackgroundImageFix" result="shape"/>
<feGaussianBlur stdDeviation="3" result="effect1_foregroundBlur_703_603"/>
</filter>
<filter id="filter5_f_703_603" x="-6" y="-10" width="23" height="30.5093" filterUnits="userSpaceOnUse" color-interpolation-filters="sRGB">
<feFlood flood-opacity="0" result="BackgroundImageFix"/>
<feBlend mode="normal" in="SourceGraphic" in2="BackgroundImageFix" result="shape"/>
<feGaussianBlur stdDeviation="3" result="effect1_foregroundBlur_703_603"/>
</filter>
<filter id="filter6_f_703_603" x="0" y="3" width="24" height="30" filterUnits="userSpaceOnUse" color-interpolation-filters="sRGB">
<feFlood flood-opacity="0" result="BackgroundImageFix"/>
<feBlend mode="normal" in="SourceGraphic" in2="BackgroundImageFix" result="shape"/>
<feGaussianBlur stdDeviation="3" result="effect1_foregroundBlur_703_603"/>
</filter>
<clipPath id="clip0_703_603">
<rect width="24" height="24" rx="12" fill="white"/>
</clipPath>
</defs>
</svg>
